<svg width="1001" height="338" viewBox="0 0 1001 338" fill="none" xmlns="http://www.w3.org/2000/svg">
<path d="M433.353 333.31H352.342L403.012 20.0056H484.018L433.353 333.31Z" fill="#F0F0F0"/>
<path d="M727.023 27.665C711.045 21.3258 685.701 14.3264 654.363 14.3264C574.363 14.3264 518.027 56.987 517.681 117.979C517.017 162.978 558.016 187.972 588.68 202.976C620.022 218.308 630.676 228.316 630.676 241.982C630.357 262.971 605.35 272.646 582.026 272.646C549.683 272.646 532.353 267.658 506.017 255.981L495.35 250.975L484.013 321.305C503.014 329.961 538.019 337.643 574.363 337.98C659.365 337.98 714.704 295.979 715.359 230.983C715.683 195.317 694.034 167.989 647.359 145.657C619.025 131.322 601.673 121.656 601.673 106.988C602.006 93.6538 616.35 79.9962 648.334 79.9962C674.67 79.3273 694.02 85.6577 708.679 91.9925L716.006 95.3194L727.023 27.665V27.665Z" fill="#F0F0F0"/>
<path d="M834.694 222.318C841.365 204.319 867.037 134.657 867.037 134.657C866.7 135.326 873.695 116.326 877.696 104.662L883.357 131.658C883.357 131.658 898.698 206.653 902.029 222.318C889.368 222.318 850.695 222.318 834.694 222.318ZM934.691 20.0056H872.03C852.706 20.0056 838.025 25.6671 829.688 46.0006L709.357 333.306H794.359C794.359 333.306 808.353 294.637 811.361 286.308C820.686 286.308 903.376 286.308 915.372 286.308C917.698 297.308 925.039 333.306 925.039 333.306H1000.05L934.691 20.0056V20.0056Z" fill="#F0F0F0"/>
<path d="M284.678 20.0056L205.342 233.649L196.673 190.32C182.005 140.323 136.004 86.0032 84.6699 58.9937L157.339 332.978H243.006L370.34 20.0056H284.678V20.0056Z" fill="#F0F0F0"/>
<path d="M131.672 0H1.33341L0 6.33041C101.672 32.3299 169.008 95.0005 196.673 170.328L168.339 26.3361C163.674 6.32598 149.338 0.660065 131.672 0Z" fill="#F0F0F0"/>
</svg>
